<svg width="572" height="690" viewBox="0 0 572 690" fill="none" xmlns="http://www.w3.org/2000/svg">
<g clip-path="url(#clip0_356_78)">
<path d="M8.36 368.664V316.528H30.248V365.016C30.248 371.501 31.5653 376.213 34.2 379.152C36.936 381.989 41.0907 383.408 46.664 383.408C51.1227 383.408 54.9227 382.597 58.064 380.976C61.2053 379.253 63.5867 376.821 65.208 373.68C66.8293 370.539 67.64 366.789 67.64 362.432V316.528H89.68V380.52C89.68 385.992 89.8827 392.376 90.288 399.672H70.984C70.5787 397.747 70.224 394.403 69.92 389.64C66.6773 393.491 62.776 396.429 58.216 398.456C53.656 400.483 48.2853 401.496 42.104 401.496C31.768 401.496 23.56 398.709 17.48 393.136C11.4 387.461 8.36 379.304 8.36 368.664ZM216.359 344.04C216.359 355.389 213.978 365.421 209.215 374.136C204.554 382.851 197.967 389.589 189.455 394.352C181.044 399.115 171.367 401.496 160.423 401.496C149.479 401.496 139.802 399.115 131.391 394.352C122.98 389.589 116.394 382.851 111.631 374.136C106.97 365.421 104.639 355.389 104.639 344.04C104.639 332.589 106.97 322.507 111.631 313.792C116.394 305.077 122.98 298.339 131.391 293.576C139.802 288.712 149.479 286.28 160.423 286.28C171.367 286.28 181.044 288.712 189.455 293.576C197.967 298.339 204.554 305.077 209.215 313.792C213.978 322.507 216.359 332.589 216.359 344.04ZM129.415 344.04C129.415 351.741 130.631 358.581 133.063 364.56C135.596 370.437 139.194 374.997 143.855 378.24C148.516 381.483 154.039 383.104 160.423 383.104C166.908 383.104 172.482 381.483 177.143 378.24C181.804 374.896 185.351 370.285 187.783 364.408C190.316 358.531 191.583 351.741 191.583 344.04C191.583 336.237 190.316 329.397 187.783 323.52C185.351 317.541 181.804 312.931 177.143 309.688C172.482 306.445 166.908 304.824 160.423 304.824C154.039 304.824 148.516 306.445 143.855 309.688C139.194 312.931 135.596 317.541 133.063 323.52C130.631 329.397 129.415 336.237 129.415 344.04ZM227.375 320.176C227.375 313.285 229.098 307.307 232.543 302.24C236.09 297.072 241.106 293.12 247.591 290.384C254.077 287.648 261.727 286.28 270.543 286.28C281.082 286.28 289.898 288.307 296.991 292.36C304.085 296.413 308.898 302.341 311.431 310.144L292.431 318.504C290.405 314.349 287.567 311.157 283.919 308.928C280.373 306.699 275.762 305.584 270.087 305.584C264.109 305.584 259.549 306.8 256.407 309.232C253.266 311.563 251.695 314.653 251.695 318.504C251.695 321.645 252.709 324.179 254.735 326.104C256.863 328.029 259.498 329.499 262.639 330.512C265.781 331.525 270.189 332.691 275.863 334.008C283.666 335.731 290.05 337.555 295.015 339.48C300.082 341.405 304.389 344.597 307.935 349.056C311.583 353.413 313.407 359.443 313.407 367.144C313.407 377.987 309.354 386.448 301.247 392.528C293.242 398.507 282.703 401.496 269.631 401.496C257.775 401.496 247.895 399.064 239.991 394.2C232.087 389.235 226.869 382.445 224.335 373.832L243.487 365.32C245.919 370.792 249.213 374.997 253.367 377.936C257.623 380.875 263.146 382.344 269.935 382.344C276.117 382.344 280.829 381.229 284.071 379C287.415 376.771 289.087 373.477 289.087 369.12C289.087 365.776 288.023 363.091 285.895 361.064C283.767 359.037 281.082 357.517 277.839 356.504C274.698 355.389 270.239 354.173 264.463 352.856C256.559 350.931 250.125 349.005 245.159 347.08C240.295 345.155 236.09 342.064 232.543 337.808C229.098 333.451 227.375 327.573 227.375 320.176ZM362.207 328.384V305.584L394.279 287.952H411.759L411.607 399.824H388.047V314.552L362.207 328.384ZM436.443 388.728C436.443 384.877 437.608 381.837 439.939 379.608C442.371 377.277 445.563 376.112 449.515 376.112C453.568 376.112 456.811 377.277 459.243 379.608C461.675 381.837 462.891 384.877 462.891 388.728C462.891 392.579 461.675 395.669 459.243 398C456.811 400.331 453.568 401.496 449.515 401.496C445.563 401.496 442.371 400.331 439.939 398C437.608 395.669 436.443 392.579 436.443 388.728ZM563.108 326.864C563.31 330.512 563.412 336.187 563.412 343.888C563.412 351.589 563.31 357.264 563.108 360.912C562.398 373.477 558.548 383.408 551.556 390.704C544.564 397.899 534.582 401.496 521.612 401.496C508.742 401.496 498.761 397.899 491.668 390.704C484.676 383.408 480.774 373.477 479.964 360.912C479.761 357.365 479.66 351.741 479.66 344.04C479.66 336.237 479.761 330.512 479.964 326.864C480.673 314.4 484.524 304.52 491.516 297.224C498.609 289.928 508.641 286.28 521.612 286.28C534.582 286.28 544.513 289.928 551.404 297.224C558.396 304.419 562.297 314.299 563.108 326.864ZM539.548 359.392C539.75 355.845 539.852 350.677 539.852 343.888C539.852 336.997 539.75 331.829 539.548 328.384C539.142 320.277 537.42 314.299 534.38 310.448C531.441 306.597 527.185 304.672 521.612 304.672C516.038 304.672 511.732 306.597 508.692 310.448C505.652 314.299 503.929 320.277 503.524 328.384C503.321 331.829 503.22 336.997 503.22 343.888C503.22 350.677 503.321 355.845 503.524 359.392C503.929 367.499 505.652 373.477 508.692 377.328C511.732 381.179 516.038 383.104 521.612 383.104C527.185 383.104 531.441 381.179 534.38 377.328C537.42 373.477 539.142 367.499 539.548 359.392Z" fill="#10D448"/>
<path d="M69.405 481.78V474.435L86.24 458.51C88.5367 456.343 90.1183 454.437 90.985 452.79C91.895 451.143 92.35 449.432 92.35 447.655C92.35 445.488 91.8083 443.863 90.725 442.78C89.685 441.653 88.125 441.09 86.045 441.09C83.835 441.09 82.0583 441.74 80.715 443.04C79.415 444.34 78.2883 446.29 77.335 448.89L69.08 445.705C70.2067 441.588 72.2867 438.49 75.32 436.41C78.3967 434.287 82.1233 433.225 86.5 433.225C89.7933 433.225 92.6533 433.832 95.08 435.045C97.55 436.215 99.435 437.883 100.735 440.05C102.078 442.173 102.75 444.643 102.75 447.46C102.75 450.407 101.948 453.202 100.345 455.845C98.7417 458.445 96.055 461.478 92.285 464.945L81.3 475.02L79.09 473.915H102.945V481.78H69.405ZM107.734 471.9V465.335L130.549 433.94H138.479V464.035H145.044V471.9H138.479V481.78H129.119V471.9H107.734ZM117.809 464.035H129.119V449.15L117.809 464.035ZM186.626 450.58C186.713 452.14 186.756 454.567 186.756 457.86C186.756 461.153 186.713 463.58 186.626 465.14C186.323 470.513 184.676 474.76 181.686 477.88C178.696 480.957 174.428 482.495 168.881 482.495C163.378 482.495 159.109 480.957 156.076 477.88C153.086 474.76 151.418 470.513 151.071 465.14C150.984 463.623 150.941 461.218 150.941 457.925C150.941 454.588 150.984 452.14 151.071 450.58C151.374 445.25 153.021 441.025 156.011 437.905C159.044 434.785 163.334 433.225 168.881 433.225C174.428 433.225 178.674 434.785 181.621 437.905C184.611 440.982 186.279 445.207 186.626 450.58ZM176.551 464.49C176.638 462.973 176.681 460.763 176.681 457.86C176.681 454.913 176.638 452.703 176.551 451.23C176.378 447.763 175.641 445.207 174.341 443.56C173.084 441.913 171.264 441.09 168.881 441.09C166.498 441.09 164.656 441.913 163.356 443.56C162.056 445.207 161.319 447.763 161.146 451.23C161.059 452.703 161.016 454.913 161.016 457.86C161.016 460.763 161.059 462.973 161.146 464.49C161.319 467.957 162.056 470.513 163.356 472.16C164.656 473.807 166.498 474.63 168.881 474.63C171.264 474.63 173.084 473.807 174.341 472.16C175.641 470.513 176.378 467.957 176.551 464.49ZM192.475 471.9V465.335L215.29 433.94H223.22V464.035H229.785V471.9H223.22V481.78H213.86V471.9H192.475ZM202.55 464.035H213.86V449.15L202.55 464.035ZM234.317 481.78V474.435L251.152 458.51C253.449 456.343 255.03 454.437 255.897 452.79C256.807 451.143 257.262 449.432 257.262 447.655C257.262 445.488 256.72 443.863 255.637 442.78C254.597 441.653 253.037 441.09 250.957 441.09C248.747 441.09 246.97 441.74 245.627 443.04C244.327 444.34 243.2 446.29 242.247 448.89L233.992 445.705C235.119 441.588 237.199 438.49 240.232 436.41C243.309 434.287 247.035 433.225 251.412 433.225C254.705 433.225 257.565 433.832 259.992 435.045C262.462 436.215 264.347 437.883 265.647 440.05C266.99 442.173 267.662 444.643 267.662 447.46C267.662 450.407 266.86 453.202 265.257 455.845C263.654 458.445 260.967 461.478 257.197 464.945L246.212 475.02L244.002 473.915H267.857V481.78H234.317ZM273.751 451.23V441.48L287.466 433.94H294.941L294.876 481.78H284.801V445.315L273.751 451.23ZM305.627 481.715V431.925H315.052V461.695L328.247 446.16H339.037L324.932 462.41L340.337 481.715H328.507L315.052 464.425V481.715H305.627ZM360.483 481.715V434.005H381.153C386.31 434.005 390.275 435.132 393.048 437.385C395.821 439.638 397.208 442.693 397.208 446.55C397.208 449.15 396.58 451.295 395.323 452.985C394.066 454.675 392.225 455.91 389.798 456.69C392.875 457.427 395.215 458.792 396.818 460.785C398.465 462.735 399.288 465.205 399.288 468.195C399.288 472.312 397.771 475.605 394.738 478.075C391.748 480.502 387.545 481.715 382.128 481.715H360.483ZM380.243 474.175C383.06 474.175 385.183 473.612 386.613 472.485C388.086 471.315 388.823 469.625 388.823 467.415C388.823 465.292 388.086 463.645 386.613 462.475C385.183 461.305 383.081 460.72 380.308 460.72H370.753V474.175H380.243ZM379.593 453.245C381.933 453.245 383.731 452.747 384.988 451.75C386.245 450.753 386.873 449.323 386.873 447.46C386.873 445.553 386.245 444.102 384.988 443.105C383.731 442.065 381.933 441.545 379.593 441.545H370.753V453.245H379.593ZM438.588 466.57H406.998V460.135H433.583L429.163 462.865C429.163 459.572 428.427 457.102 426.953 455.455C425.523 453.808 423.595 452.985 421.168 452.985C418.612 452.985 416.532 453.852 414.928 455.585C413.368 457.318 412.588 459.875 412.588 463.255V464.62C412.588 468.043 413.498 470.622 415.318 472.355C417.182 474.045 419.522 474.89 422.338 474.89C424.028 474.89 425.48 474.543 426.693 473.85C427.95 473.157 429.012 472.117 429.878 470.73L437.808 474.24C436.638 476.797 434.732 478.812 432.088 480.285C429.445 481.758 426.13 482.495 422.143 482.495C418.287 482.495 414.907 481.715 412.003 480.155C409.1 478.595 406.868 476.428 405.308 473.655C403.748 470.838 402.968 467.61 402.968 463.97C402.968 460.287 403.727 457.037 405.243 454.22C406.803 451.403 408.97 449.237 411.743 447.72C414.56 446.16 417.788 445.38 421.428 445.38C426.888 445.38 431.135 447.048 434.168 450.385C437.202 453.722 438.718 458.207 438.718 463.84C438.718 464.403 438.697 464.923 438.653 465.4C438.653 465.833 438.632 466.223 438.588 466.57ZM464.097 453.31H455.582V469.17C455.582 471.25 456.037 472.723 456.947 473.59C457.901 474.457 459.396 474.89 461.432 474.89C462.299 474.89 463.187 474.803 464.097 474.63V481.845C462.624 482.278 460.912 482.495 458.962 482.495C454.932 482.495 451.791 481.433 449.537 479.31C447.327 477.187 446.222 474.197 446.222 470.34V453.31H440.307V446.16H446.222V437.905H455.582V446.16H464.097V453.31ZM484.565 445.38C489.635 445.38 493.665 446.658 496.655 449.215C499.688 451.728 501.205 455.347 501.205 460.07V473.265C501.205 475.735 501.291 478.53 501.465 481.65H493.21C493.123 481.13 493.015 480.307 492.885 479.18C492.798 478.053 492.733 476.818 492.69 475.475L495.095 474.955C494.141 477.208 492.538 479.028 490.285 480.415C488.031 481.802 485.258 482.495 481.965 482.495C477.891 482.495 474.533 481.607 471.89 479.83C469.246 478.01 467.925 475.215 467.925 471.445C467.925 467.632 469.29 464.75 472.02 462.8C474.75 460.85 478.736 459.767 483.98 459.55L495.095 459.16L492.04 461.695V460.525C492.04 457.882 491.325 455.91 489.895 454.61C488.508 453.267 486.623 452.595 484.24 452.595C482.376 452.595 480.708 453.007 479.235 453.83C477.761 454.61 476.548 455.78 475.595 457.34L468.835 453.44C470.265 450.883 472.366 448.912 475.14 447.525C477.956 446.095 481.098 445.38 484.565 445.38ZM483.33 475.28C485.843 475.28 487.923 474.543 489.57 473.07C491.216 471.597 492.04 469.43 492.04 466.57V462.865L495.55 466.18L484.63 466.57C482.073 466.657 480.231 467.09 479.105 467.87C478.021 468.65 477.48 469.755 477.48 471.185C477.48 472.572 477.978 473.612 478.975 474.305C480.015 474.955 481.466 475.28 483.33 475.28Z" fill="black"/>
</g>
<defs>
<clipPath id="clip0_356_78">
<rect width="571.94" height="689.038" fill="white"/>
</clipPath>
</defs>
</svg>
